{"title":"Go for Broke! (1951) DvdRip Eng NKM","uid":6179386,"size":726202202,"categoryP":"video","categoryS":"movies","magnet":"?xt=urn:btih:6fae43dc5fb9e574bbf6303ea0e5ab597f8af10c&amp;dn=Go+for+Broke%21+%281951%29+DvdRip+Eng+NKM&amp;tr=udp%3A%2F%2Ftracker.openbittorrent.com%3A80&amp;tr=udp%3A%2F%2Fopen.demonii.com%3A1337&amp;tr=udp%3A%2F%2Ftracker.coppersurfer.tk%3A6969&amp;tr=udp%3A%2F%2Fexodus.desync.com%3A6969","seeders":0,"leechers":1,"uploader":"vikkiy","files":1,"time":1297892988,"description":"The story of Japanese-American soldiers who fought in Europe during World War II.\n\n\n\nGeneral\n\nMovie name                       : Go for Broke! (1951)\nFormat                           : AVI\nFormat/Info                      : Audio Video Interleave\nFile size                        : 693 MiB\nDuration                         : 1h 30mn\nOverall bit rate                 : 1 067 Kbps\n\n\nVideo\n\nID                               : 0\nFormat                           : MPEG-4 Visual\nFormat profile                   : Simple@L1\nFormat settings, BVOP            : No\nFormat settings, QPel            : No\nFormat settings, GMC             : No warppoints\nFormat settings, Matrix          : Default (H.263)\nCodec ID                         : DX50\nCodec ID/Hint                    : DivX 5\nDuration                         : 1h 30mn\nBit rate                         : 1 021 Kbps\nWidth                            : 640 pixels\nHeight                           : 480 pixels\nDisplay aspect ratio             : 4:3\nFrame rate                       : 29.970 fps\nColor space                      : YUV\nChroma subsampling               : 4:2:0\nBit depth                        : 8 bits\nScan type                        : Progressive\nCompression mode                 : Lossy\nBits/(Pixel*Frame)               : 0.111\nStream size                      : 663 MiB (96%)\nWriting library                  : Lavc51.40.4\n\n\nAudio\n\nID                               : 1\nFormat                           : MPEG Audio\nFormat version                   : Version 1\nFormat profile                   : Layer 3\nMode                             : Joint stereo\nMode extension                   : MS Stereo\nCodec ID                         : 55\nCodec ID/Hint                    : MP3\nDuration                         : 1h 30mn\nBit rate mode                    : Constant\nBit rate                         : 32.0 Kbps\nChannel(s)                       : 2 channels\nSampling rate                    : 48.0 KHz\nCompression mode                 : Lossy\nStream size                      : 20.8 MiB (3%)\nAlignment                        : Aligned on interleaves\nInterleave, duration             : 24 ms (0.72 video frame)","torrent":{"xt":"urn:btih:6fae43dc5fb9e574bbf6303ea0e5ab597f8af10c","amp;dn":"Go+for+Broke%21+%281951%29+DvdRip+Eng+NKM","amp;tr":["udp%3A%2F%2Ftracker.openbittorrent.com%3A80","udp%3A%2F%2Fopen.demonii.com%3A1337","udp%3A%2F%2Ftracker.coppersurfer.tk%3A6969","udp%3A%2F%2Fexodus.desync.com%3A6969"],"infoHash":"6fae43dc5fb9e574bbf6303ea0e5ab597f8af10c","infoHashBuffer":{"type":"Buffer","data":[111,174,67,220,95,185,229,116,187,246,48,62,160,229,171,89,127,138,241,12]},"announce":[],"urlList":[]}}